<svg width="258" height="53" viewBox="0 0 258 53" fill="none" xmlns="http://www.w3.org/2000/svg">
<path d="M35.4682 37.7382H36.0939V38.1275H27.6076V37.7771H28.1942C28.6374 37.7771 29.0155 37.6084 29.3283 37.2709C29.6412 36.9075 29.7715 36.5181 29.7194 36.1027L27.9596 16.5165L19.747 34.7009C19.017 36.2844 18.5738 37.6084 18.4174 38.6727H18.0263L8.0148 17.0617L6.33319 36.1027C6.28104 36.5181 6.4114 36.9075 6.72426 37.2709C7.03712 37.6084 7.40212 37.7771 7.81927 37.7771H8.44498V38.1275H0.858154V37.7382H1.48387C2.21388 37.7382 2.83959 37.5175 3.36103 37.0762C3.90853 36.6349 4.23442 36.0378 4.33871 35.285L7.27176 10.3253H7.66284L18.5738 33.8053L29.2501 10.3253H29.6021L32.6133 35.285C32.7437 36.3234 33.2651 37.0502 34.1776 37.4656C34.5687 37.6473 34.9989 37.7382 35.4682 37.7382ZM45.9841 15.7767C47.9916 14.7383 50.1947 14.2191 52.5932 14.2191C55.0181 14.2191 57.2341 14.7383 59.2417 15.7767C61.2492 16.7891 62.8395 18.2298 64.0128 20.0989C65.212 21.968 65.8117 24.0836 65.8117 26.4459C65.8117 28.8082 65.212 30.9239 64.0128 32.7929C62.8395 34.662 61.2492 36.1157 59.2417 37.1541C57.2341 38.1665 55.1745 38.6727 53.0625 38.6727C50.9507 38.6727 49.0866 38.3742 47.4702 37.7771C45.8537 37.18 44.4459 36.3493 43.2466 35.285C42.0734 34.2207 41.1348 32.9227 40.4308 31.3911C39.753 29.8595 39.4141 28.0684 39.4141 26.0176C39.4141 23.9408 40.0007 21.968 41.1739 20.0989C42.3732 18.2298 43.9766 16.7891 45.9841 15.7767ZM45.2411 34.4284C47.2225 36.4791 49.6732 37.5045 52.5932 37.5045C55.5134 37.5045 57.9641 36.4791 59.9456 34.4284C61.927 32.3516 62.9177 29.6908 62.9177 26.4459C62.9177 23.201 61.927 20.5532 59.9456 18.5024C57.9641 16.4257 55.5134 15.3873 52.5932 15.3873C49.6732 15.3873 47.2225 16.4257 45.2411 18.5024C43.2857 20.5532 42.308 23.201 42.308 26.4459C42.308 29.6908 43.2857 32.3516 45.2411 34.4284ZM77.4429 15.7767C79.4504 14.7383 81.6534 14.2191 84.052 14.2191C86.4767 14.2191 88.6928 14.7383 90.7003 15.7767C92.7078 16.7891 94.2982 18.2298 95.4714 20.0989C96.6707 21.968 97.2703 24.0836 97.2703 26.4459C97.2703 28.8082 96.6707 30.9239 95.4714 32.7929C94.2982 34.662 92.7078 36.1157 90.7003 37.1541C88.6928 38.1665 86.6331 38.6727 84.5213 38.6727C82.4095 38.6727 80.5454 38.3742 78.929 37.7771C77.3125 37.18 75.9047 36.3493 74.7048 35.285C73.5321 34.2207 72.5936 32.9227 71.8896 31.3911C71.2112 29.8595 70.8723 28.0684 70.8723 26.0176C70.8723 23.9408 71.4589 21.968 72.6327 20.0989C73.8314 18.2298 75.4354 16.7891 77.4429 15.7767ZM76.6998 34.4284C78.6813 36.4791 81.132 37.5045 84.052 37.5045C86.972 37.5045 89.4228 36.4791 91.4042 34.4284C93.3857 32.3516 94.3764 29.6908 94.3764 26.4459C94.3764 23.201 93.3857 20.5532 91.4042 18.5024C89.4228 16.4257 86.972 15.3873 84.052 15.3873C81.132 15.3873 78.6813 16.4257 76.6998 18.5024C74.7445 20.5532 73.7668 23.201 73.7668 26.4459C73.7668 29.6908 74.7445 32.3516 76.6998 34.4284ZM128.616 15.1537C128.042 15.1537 127.547 15.3484 127.13 15.7377C126.713 16.1012 126.491 16.5555 126.465 17.1006V33.6885C126.465 35.1942 126.556 36.6219 126.739 37.9718L126.817 38.6727H126.465L106.129 19.4759V35.7133C106.129 36.2844 106.338 36.7647 106.755 37.1541C107.172 37.5435 107.68 37.7382 108.28 37.7382H108.945V38.1275H101.554V37.7382H102.218C102.818 37.7382 103.327 37.5435 103.744 37.1541C104.161 36.7647 104.369 36.2844 104.369 35.7133V19.0475C104.369 17.464 104.278 16.0493 104.096 14.8032L104.017 14.1802L104.448 14.2191L124.744 33.2602V17.1006C124.692 16.5555 124.458 16.1012 124.04 15.7377C123.623 15.3484 123.128 15.1537 122.554 15.1537H121.889V14.7643H129.281V15.1537H128.616ZM153.187 12.0775H150.684V35.285C150.684 35.96 150.919 36.544 151.388 37.0373C151.883 37.5045 152.483 37.7382 153.187 37.7382H153.656L153.695 38.1275H145.131V37.7382H145.639C146.317 37.7382 146.891 37.5045 147.36 37.0373C147.855 36.57 148.116 35.9989 148.142 35.324V13.7129C148.116 13.038 147.855 12.4669 147.36 11.9996C146.891 11.5064 146.317 11.2598 145.639 11.2598H145.131V10.8704H155.69C158.062 10.8704 159.926 11.5324 161.282 12.8563C162.638 14.1542 163.316 15.8546 163.316 17.9573C163.316 20.034 162.664 21.8382 161.36 23.3697C160.083 24.8754 158.518 25.6282 156.667 25.6282C157.058 25.8099 157.515 26.1733 158.036 26.7185C158.584 27.2377 159.066 27.7828 159.483 28.3539C161.725 31.5469 163.185 33.5198 163.863 34.2726C164.541 34.9995 165.023 35.5057 165.31 35.7912C165.597 36.0508 165.91 36.3104 166.249 36.57C166.588 36.8296 166.927 37.0373 167.265 37.193C168.022 37.5564 168.83 37.7382 169.69 37.7382V38.1275H167.539C166.418 38.1275 165.375 37.9328 164.411 37.5435C163.446 37.1281 162.716 36.7128 162.221 36.2974C161.751 35.8561 161.334 35.4408 160.969 35.0514C160.63 34.636 159.666 33.2862 158.075 31.0017C156.485 28.7173 155.559 27.4194 155.299 27.1079C155.038 26.7704 154.764 26.4459 154.477 26.1344C153.643 25.2518 152.809 24.8105 151.974 24.8105V24.4211C152.183 24.4471 152.457 24.46 152.796 24.46C153.135 24.46 153.552 24.4471 154.047 24.4211C157.28 24.3432 159.314 22.9933 160.148 20.3715C160.304 19.8523 160.383 19.372 160.383 18.9307C160.383 18.4635 160.383 18.1649 160.383 18.0351C160.33 16.2959 159.874 14.8941 159.014 13.8297C158.153 12.7654 156.993 12.1943 155.533 12.1164C154.908 12.0905 154.125 12.0775 153.187 12.0775ZM171.938 37.7382C172.642 37.7382 173.255 37.5305 173.776 37.1151C174.298 36.6998 174.558 36.2066 174.558 35.6355V17.2564C174.558 16.6853 174.298 16.192 173.776 15.7767C173.255 15.3613 172.629 15.1537 171.899 15.1537H171.391V14.7643H180.229V15.1537H179.721C179.017 15.1537 178.404 15.3484 177.883 15.7377C177.387 16.1271 177.113 16.6074 177.061 17.1785V35.6744C177.087 36.2455 177.361 36.7387 177.883 37.1541C178.404 37.5435 179.017 37.7382 179.721 37.7382H180.229L180.268 38.1275H171.391V37.7382H171.938ZM209.713 15.1537H209.4C208.827 15.1537 208.266 15.3484 207.719 15.7377C207.171 16.1012 206.702 16.6593 206.311 17.4121C200.627 29.561 197.668 35.921 197.434 36.4921C196.99 37.5824 196.756 38.3093 196.73 38.6727H196.378L186.718 17.4511C185.962 15.9195 184.958 15.1537 183.707 15.1537H183.394V14.7643H191.411V15.1537H191.098C190.603 15.1537 190.225 15.3354 189.964 15.6988C189.729 16.0363 189.612 16.3478 189.612 16.6333C189.612 16.9189 189.651 17.2174 189.729 17.5289L196.73 34.5062L203.925 17.6068C204.056 17.2693 204.121 16.9578 204.121 16.6723C204.121 16.3608 203.991 16.0363 203.73 15.6988C203.469 15.3354 203.078 15.1537 202.557 15.1537H202.283V14.7643H209.713V15.1537ZM213.354 37.7382C213.98 37.7382 214.501 37.5435 214.918 37.1541C215.362 36.7387 215.596 36.2455 215.622 35.6744V17.1785C215.622 16.6074 215.401 16.1271 214.957 15.7377C214.514 15.3484 213.98 15.1537 213.354 15.1537H212.807V14.7643H224.226C225.295 14.7643 226.233 14.6864 227.042 14.5306C227.85 14.3749 228.371 14.2451 228.606 14.1413V18.5803L228.176 18.5413V17.9573C228.176 17.4121 227.993 16.9448 227.628 16.5555C227.263 16.1661 226.794 15.9714 226.22 15.9714H218.086V25.8618H224.773C225.295 25.8618 225.686 25.7061 225.947 25.3946C226.233 25.0831 226.377 24.6937 226.377 24.2264V23.7202H226.807V29.1716H226.377V28.6654C226.377 27.9386 226.103 27.4453 225.556 27.1857C225.347 27.1079 225.125 27.056 224.891 27.03H218.086V36.9204H224.226C225.425 36.9204 226.429 36.7128 227.237 36.2974C228.071 35.8821 228.697 35.3888 229.114 34.8177C229.558 34.2466 230.001 33.4938 230.444 32.5593H230.835L228.684 38.1275H212.807V37.7382H213.354ZM242.259 15.9714H240.187V35.6355C240.213 36.4402 240.578 37.0502 241.282 37.4656C241.621 37.6473 241.999 37.7382 242.416 37.7382H242.924L242.963 38.1275H234.946V37.7382H235.494C236.093 37.7382 236.602 37.5435 237.019 37.1541C237.462 36.7387 237.684 36.2455 237.684 35.6744V17.1785C237.684 16.6074 237.462 16.1271 237.019 15.7377C236.602 15.3484 236.093 15.1537 235.494 15.1537H234.946V14.7643H244.762C247.213 14.7643 249.142 15.3224 250.55 16.4386C251.984 17.5549 252.701 19.0216 252.701 20.8387C252.701 22.6559 252.127 24.1745 250.98 25.3946C249.833 26.6146 248.373 27.3155 246.6 27.4973C247.434 27.8607 248.438 28.8731 249.611 30.5345C249.585 30.5345 250.029 31.1056 250.941 32.2478C251.88 33.39 252.623 34.2856 253.17 34.9346C253.744 35.5576 254.213 36.0378 254.578 36.3753C255.543 37.2839 256.651 37.7382 257.902 37.7382V38.1275H256.69C254.63 38.1275 253.014 37.7252 251.841 36.9204C250.954 36.3234 250.146 35.5835 249.416 34.7009C249.26 34.4933 248.595 33.5847 247.421 31.9752C246.274 30.3398 245.662 29.4702 245.583 29.3663C244.176 27.6271 242.859 26.7574 241.634 26.7574V26.368C244.684 26.368 246.522 26.2123 247.148 25.9008C248.008 25.4595 248.595 24.9922 248.908 24.499C249.559 23.4606 249.885 22.3184 249.885 21.0724C249.885 19.4888 249.416 18.2688 248.477 17.4121C247.539 16.5555 246.274 16.0882 244.684 16.0103C243.98 15.9844 243.172 15.9714 242.259 15.9714Z" fill="white"/>
<path d="M97.2741 26.1242C96.9145 15.4424 87.3452 13.6272 82.8652 13.8018C84.662 14.3603 93.2499 15.8963 94.2199 26.1242C94.9961 34.3067 86.9737 38.1442 82.8652 39.0402C87.9916 39.0169 97.6331 36.8061 97.2741 26.1242Z" fill="#EFC58B"/>
</svg>
